<mxfile host="app.diagrams.net" modified="2024-03-25T22:53:15.961Z" agent="Mozilla/5.0 (Windows NT 10.0; Win64; x64) AppleWebKit/537.36 (KHTML, like Gecko) Chrome/121.0.0.0 Safari/537.36 OPR/107.0.0.0" etag="ytvJjHISzMV9NHA0WUJP" version="24.1.0" type="device">
  <diagram name="Strona-1" id="a62B8yen-e49TcKUi3lC">
    <mxGraphModel dx="1393" dy="804" grid="1" gridSize="10" guides="1" tooltips="1" connect="1" arrows="1" fold="1" page="1" pageScale="1" pageWidth="827" pageHeight="1169" math="0" shadow="0">
      <root>
        <mxCell id="0" />
        <mxCell id="1" parent="0" />
        <mxCell id="jJYSJ7oBrwSEvRi9IGch-2" value="Użytkownik" style="swimlane;whiteSpace=wrap;html=1;" vertex="1" parent="1">
          <mxGeometry x="139" y="120" width="211" height="810" as="geometry" />
        </mxCell>
        <mxCell id="jJYSJ7oBrwSEvRi9IGch-9" style="edgeStyle=orthogonalEdgeStyle;rounded=0;orthogonalLoop=1;jettySize=auto;html=1;entryX=0.5;entryY=0;entryDx=0;entryDy=0;" edge="1" parent="jJYSJ7oBrwSEvRi9IGch-2" source="jJYSJ7oBrwSEvRi9IGch-4" target="jJYSJ7oBrwSEvRi9IGch-6">
          <mxGeometry relative="1" as="geometry" />
        </mxCell>
        <mxCell id="jJYSJ7oBrwSEvRi9IGch-4" value="" style="ellipse;html=1;shape=startState;fillColor=#000000;strokeColor=#ff0000;" vertex="1" parent="jJYSJ7oBrwSEvRi9IGch-2">
          <mxGeometry x="90.5" y="40" width="30" height="30" as="geometry" />
        </mxCell>
        <mxCell id="jJYSJ7oBrwSEvRi9IGch-6" value="Użytkownik wybiera opcję zakupu konta premium" style="rounded=1;whiteSpace=wrap;html=1;arcSize=40;fontColor=#000000;fillColor=#ffffc0;strokeColor=#ff0000;" vertex="1" parent="jJYSJ7oBrwSEvRi9IGch-2">
          <mxGeometry x="33" y="130" width="145" height="60" as="geometry" />
        </mxCell>
        <mxCell id="jJYSJ7oBrwSEvRi9IGch-18" value="System" style="swimlane;whiteSpace=wrap;html=1;" vertex="1" parent="1">
          <mxGeometry x="350" y="120" width="350" height="810" as="geometry" />
        </mxCell>
        <mxCell id="jJYSJ7oBrwSEvRi9IGch-41" style="edgeStyle=orthogonalEdgeStyle;rounded=0;orthogonalLoop=1;jettySize=auto;html=1;entryX=0.5;entryY=0;entryDx=0;entryDy=0;" edge="1" parent="jJYSJ7oBrwSEvRi9IGch-18" source="jJYSJ7oBrwSEvRi9IGch-35" target="jJYSJ7oBrwSEvRi9IGch-21">
          <mxGeometry relative="1" as="geometry" />
        </mxCell>
        <mxCell id="jJYSJ7oBrwSEvRi9IGch-35" value="" style="rhombus;whiteSpace=wrap;html=1;fontColor=#000000;fillColor=#ffffc0;strokeColor=#ff0000;" vertex="1" parent="jJYSJ7oBrwSEvRi9IGch-18">
          <mxGeometry x="83.75" y="140" width="32.5" height="40" as="geometry" />
        </mxCell>
        <mxCell id="jJYSJ7oBrwSEvRi9IGch-25" style="edgeStyle=orthogonalEdgeStyle;rounded=0;orthogonalLoop=1;jettySize=auto;html=1;entryX=0.5;entryY=0;entryDx=0;entryDy=0;" edge="1" parent="jJYSJ7oBrwSEvRi9IGch-18" source="jJYSJ7oBrwSEvRi9IGch-10" target="jJYSJ7oBrwSEvRi9IGch-13">
          <mxGeometry relative="1" as="geometry" />
        </mxCell>
        <mxCell id="jJYSJ7oBrwSEvRi9IGch-10" value="Użytkownik wybiera prefereowany plan premium" style="rounded=1;whiteSpace=wrap;html=1;arcSize=40;fontColor=#000000;fillColor=#ffffc0;strokeColor=#ff0000;" vertex="1" parent="jJYSJ7oBrwSEvRi9IGch-18">
          <mxGeometry x="-176.75" y="265" width="142.5" height="60" as="geometry" />
        </mxCell>
        <mxCell id="jJYSJ7oBrwSEvRi9IGch-42" style="edgeStyle=orthogonalEdgeStyle;rounded=0;orthogonalLoop=1;jettySize=auto;html=1;entryX=0.5;entryY=0;entryDx=0;entryDy=0;" edge="1" parent="jJYSJ7oBrwSEvRi9IGch-18" source="jJYSJ7oBrwSEvRi9IGch-13" target="jJYSJ7oBrwSEvRi9IGch-28">
          <mxGeometry relative="1" as="geometry" />
        </mxCell>
        <mxCell id="jJYSJ7oBrwSEvRi9IGch-13" value="Użytkownik potwierdza zakup konta premium" style="rounded=1;whiteSpace=wrap;html=1;arcSize=40;fontColor=#000000;fillColor=#ffffc0;strokeColor=#ff0000;" vertex="1" parent="jJYSJ7oBrwSEvRi9IGch-18">
          <mxGeometry x="-176.75" y="365" width="142.5" height="50" as="geometry" />
        </mxCell>
        <mxCell id="jJYSJ7oBrwSEvRi9IGch-16" value="" style="ellipse;html=1;shape=endState;fillColor=#000000;strokeColor=#ff0000;" vertex="1" parent="jJYSJ7oBrwSEvRi9IGch-18">
          <mxGeometry x="85" y="750" width="30" height="30" as="geometry" />
        </mxCell>
        <mxCell id="jJYSJ7oBrwSEvRi9IGch-21" value="System wyświetla plany premium" style="rounded=1;whiteSpace=wrap;html=1;arcSize=40;fontColor=#000000;fillColor=#ffffc0;strokeColor=#ff0000;" vertex="1" parent="jJYSJ7oBrwSEvRi9IGch-18">
          <mxGeometry x="27.5" y="215" width="145" height="60" as="geometry" />
        </mxCell>
        <mxCell id="jJYSJ7oBrwSEvRi9IGch-32" style="edgeStyle=orthogonalEdgeStyle;rounded=0;orthogonalLoop=1;jettySize=auto;html=1;entryX=0.5;entryY=0;entryDx=0;entryDy=0;" edge="1" parent="jJYSJ7oBrwSEvRi9IGch-18" source="jJYSJ7oBrwSEvRi9IGch-28" target="jJYSJ7oBrwSEvRi9IGch-29">
          <mxGeometry relative="1" as="geometry" />
        </mxCell>
        <mxCell id="jJYSJ7oBrwSEvRi9IGch-28" value="System uruchamia proces płatności" style="rounded=1;whiteSpace=wrap;html=1;arcSize=40;fontColor=#000000;fillColor=#ffffc0;strokeColor=#ff0000;" vertex="1" parent="jJYSJ7oBrwSEvRi9IGch-18">
          <mxGeometry x="27.5" y="430" width="145" height="60" as="geometry" />
        </mxCell>
        <mxCell id="jJYSJ7oBrwSEvRi9IGch-47" style="edgeStyle=orthogonalEdgeStyle;rounded=0;orthogonalLoop=1;jettySize=auto;html=1;entryX=0.5;entryY=1;entryDx=0;entryDy=0;" edge="1" parent="jJYSJ7oBrwSEvRi9IGch-18" source="jJYSJ7oBrwSEvRi9IGch-29" target="jJYSJ7oBrwSEvRi9IGch-43">
          <mxGeometry relative="1" as="geometry" />
        </mxCell>
        <mxCell id="jJYSJ7oBrwSEvRi9IGch-48" value="Płatność nie powodzi się" style="edgeLabel;html=1;align=center;verticalAlign=middle;resizable=0;points=[];" vertex="1" connectable="0" parent="jJYSJ7oBrwSEvRi9IGch-47">
          <mxGeometry x="0.1531" y="1" relative="1" as="geometry">
            <mxPoint as="offset" />
          </mxGeometry>
        </mxCell>
        <mxCell id="jJYSJ7oBrwSEvRi9IGch-52" style="edgeStyle=orthogonalEdgeStyle;rounded=0;orthogonalLoop=1;jettySize=auto;html=1;entryX=0.5;entryY=0;entryDx=0;entryDy=0;" edge="1" parent="jJYSJ7oBrwSEvRi9IGch-18" source="jJYSJ7oBrwSEvRi9IGch-29" target="jJYSJ7oBrwSEvRi9IGch-50">
          <mxGeometry relative="1" as="geometry" />
        </mxCell>
        <mxCell id="jJYSJ7oBrwSEvRi9IGch-53" value="Płatność powodzi się" style="edgeLabel;html=1;align=center;verticalAlign=middle;resizable=0;points=[];" vertex="1" connectable="0" parent="jJYSJ7oBrwSEvRi9IGch-52">
          <mxGeometry x="-0.1678" y="3" relative="1" as="geometry">
            <mxPoint as="offset" />
          </mxGeometry>
        </mxCell>
        <mxCell id="jJYSJ7oBrwSEvRi9IGch-29" value="" style="rhombus;whiteSpace=wrap;html=1;fontColor=#000000;fillColor=#ffffc0;strokeColor=#ff0000;" vertex="1" parent="jJYSJ7oBrwSEvRi9IGch-18">
          <mxGeometry x="83.75" y="530" width="32.5" height="40" as="geometry" />
        </mxCell>
        <mxCell id="jJYSJ7oBrwSEvRi9IGch-24" style="edgeStyle=orthogonalEdgeStyle;rounded=0;orthogonalLoop=1;jettySize=auto;html=1;entryX=1;entryY=0.5;entryDx=0;entryDy=0;" edge="1" parent="jJYSJ7oBrwSEvRi9IGch-18" source="jJYSJ7oBrwSEvRi9IGch-21" target="jJYSJ7oBrwSEvRi9IGch-10">
          <mxGeometry relative="1" as="geometry">
            <Array as="points">
              <mxPoint x="100" y="295" />
            </Array>
          </mxGeometry>
        </mxCell>
        <mxCell id="jJYSJ7oBrwSEvRi9IGch-49" style="edgeStyle=orthogonalEdgeStyle;rounded=0;orthogonalLoop=1;jettySize=auto;html=1;entryX=1;entryY=0.5;entryDx=0;entryDy=0;" edge="1" parent="jJYSJ7oBrwSEvRi9IGch-18" source="jJYSJ7oBrwSEvRi9IGch-43" target="jJYSJ7oBrwSEvRi9IGch-35">
          <mxGeometry relative="1" as="geometry">
            <Array as="points">
              <mxPoint x="250" y="160" />
            </Array>
          </mxGeometry>
        </mxCell>
        <mxCell id="jJYSJ7oBrwSEvRi9IGch-43" value="System wyświetla informację o niepowodzeniu w płatności" style="rounded=1;whiteSpace=wrap;html=1;arcSize=40;fontColor=#000000;fillColor=#ffffc0;strokeColor=#ff0000;" vertex="1" parent="jJYSJ7oBrwSEvRi9IGch-18">
          <mxGeometry x="170" y="325" width="160" height="60" as="geometry" />
        </mxCell>
        <mxCell id="jJYSJ7oBrwSEvRi9IGch-54" style="edgeStyle=orthogonalEdgeStyle;rounded=0;orthogonalLoop=1;jettySize=auto;html=1;entryX=0.5;entryY=0;entryDx=0;entryDy=0;" edge="1" parent="jJYSJ7oBrwSEvRi9IGch-18" source="jJYSJ7oBrwSEvRi9IGch-50" target="jJYSJ7oBrwSEvRi9IGch-16">
          <mxGeometry relative="1" as="geometry" />
        </mxCell>
        <mxCell id="jJYSJ7oBrwSEvRi9IGch-50" value="System rejestruje plan premium na koncie użytkownika" style="rounded=1;whiteSpace=wrap;html=1;arcSize=40;fontColor=#000000;fillColor=#ffffc0;strokeColor=#ff0000;" vertex="1" parent="jJYSJ7oBrwSEvRi9IGch-18">
          <mxGeometry x="27.5" y="640" width="145" height="60" as="geometry" />
        </mxCell>
        <mxCell id="jJYSJ7oBrwSEvRi9IGch-36" style="edgeStyle=orthogonalEdgeStyle;rounded=0;orthogonalLoop=1;jettySize=auto;html=1;entryX=0;entryY=0.5;entryDx=0;entryDy=0;" edge="1" parent="1" source="jJYSJ7oBrwSEvRi9IGch-6" target="jJYSJ7oBrwSEvRi9IGch-35">
          <mxGeometry relative="1" as="geometry" />
        </mxCell>
      </root>
    </mxGraphModel>
  </diagram>
</mxfile>
